<?xml version="1.0" standalone="no"?>
<!DOCTYPE svg PUBLIC "-//W3C//DTD SVG 20010904//EN"
 "http://www.w3.org/TR/2001/REC-SVG-20010904/DTD/svg10.dtd">
<svg version="1.0" xmlns="http://www.w3.org/2000/svg"
 width="512.000000pt" height="512.000000pt" viewBox="0 0 512.000000 512.000000"
 preserveAspectRatio="xMidYMid meet">
<metadata>
Created by potrace 1.14, written by Peter Selinger 2001-2017
</metadata>
<g transform="translate(0.000000,512.000000) scale(0.100000,-0.100000)"
fill="#000000" stroke="none">
<path d="M1534 4724 c-95 -19 -120 -35 -364 -236 -163 -133 -203 -180 -234
-275 -19 -57 -23 -159 -8 -213 29 -108 72 -164 211 -276 l111 -89 0 -146 c0
-129 2 -148 18 -162 10 -10 24 -17 30 -17 8 0 12 -30 12 -100 0 -60 -4 -100
-10 -100 -5 0 -19 -9 -30 -20 -19 -19 -20 -33 -20 -430 0 -225 -3 -410 -7
-411 -5 0 -71 -2 -148 -4 -149 -3 -195 -14 -289 -69 -61 -36 -134 -119 -170
-196 -28 -60 -30 -73 -30 -175 0 -127 17 -183 85 -272 l40 -53 -118 -1 c-65
-1 -122 -2 -128 -3 -140 -23 -229 -67 -320 -160 -117 -118 -168 -246 -161
-407 4 -96 31 -188 78 -264 65 -105 194 -204 308 -236 25 -7 52 -14 60 -17 29
-9 1105 -9 1123 0 10 5 23 19 28 32 10 20 17 22 101 21 87 0 90 -1 104 -26 7
-15 21 -28 31 -31 32 -8 2797 -2 2838 6 172 34 323 154 399 319 48 103 55 283
17 392 -69 195 -242 340 -441 369 -24 3 -25 6 -24 72 1 68 10 177 19 224 3 13
7 41 10 62 5 32 19 106 41 208 17 83 58 247 64 260 5 8 10 29 13 45 8 39 27
108 66 228 18 54 31 110 29 125 -3 30 -41 54 -69 44 -63 -24 -281 -248 -392
-404 -49 -69 -54 -83 -36 -120 9 -20 3 -36 -35 -103 -39 -69 -50 -81 -77 -85
-24 -4 -37 -14 -51 -42 -51 -97 -114 -340 -119 -456 l-3 -52 -104 0 -104 0 32
37 c86 98 120 235 94 383 -26 154 -187 308 -351 338 -28 5 -379 9 -779 10
-401 0 -731 1 -734 1 -3 1 -4 312 -4 693 l2 691 103 84 c128 104 153 131 192
212 68 142 38 326 -70 435 -15 16 -73 65 -128 109 -55 45 -102 84 -105 87 -3
3 -34 28 -70 57 -92 72 -122 88 -210 110 -40 10 -262 8 -316 -3z"/>
</g>
</svg>
